<mxfile host="Electron" modified="2024-05-15T14:38:34.007Z" agent="Mozilla/5.0 (Windows NT 10.0; Win64; x64) AppleWebKit/537.36 (KHTML, like Gecko) draw.io/23.1.5 Chrome/120.0.6099.109 Electron/28.1.0 Safari/537.36" etag="r5Z5e7m-UbdUB7lOuh4E" version="23.1.5" type="device">
  <diagram name="Page-1" id="aLzAXbJkkLupTe2nQx_E">
    <mxGraphModel dx="1948" dy="1758" grid="1" gridSize="10" guides="1" tooltips="1" connect="1" arrows="1" fold="1" page="1" pageScale="1" pageWidth="850" pageHeight="1100" math="0" shadow="0">
      <root>
        <mxCell id="0" />
        <mxCell id="1" parent="0" />
        <mxCell id="FxGqSlxQfBp4GIedTy_--33" value="" style="ellipse;whiteSpace=wrap;html=1;aspect=fixed;" parent="1" vertex="1">
          <mxGeometry x="-235" y="455" width="150" height="150" as="geometry" />
        </mxCell>
        <mxCell id="FxGqSlxQfBp4GIedTy_--11" style="edgeStyle=orthogonalEdgeStyle;rounded=0;orthogonalLoop=1;jettySize=auto;html=1;entryX=0.5;entryY=1;entryDx=0;entryDy=0;curved=1;" parent="1" source="FxGqSlxQfBp4GIedTy_--1" target="FxGqSlxQfBp4GIedTy_--2" edge="1">
          <mxGeometry relative="1" as="geometry" />
        </mxCell>
        <mxCell id="FxGqSlxQfBp4GIedTy_--1" value="&lt;b&gt;PRE-FLIGHT&lt;/b&gt;" style="ellipse;whiteSpace=wrap;html=1;aspect=fixed;fillColor=#fff2cc;strokeColor=#d6b656;" parent="1" vertex="1">
          <mxGeometry x="-220" y="470" width="120" height="120" as="geometry" />
        </mxCell>
        <mxCell id="FxGqSlxQfBp4GIedTy_--2" value="&lt;b&gt;POWERED-FLIGHT&lt;/b&gt;" style="ellipse;whiteSpace=wrap;html=1;aspect=fixed;" parent="1" vertex="1">
          <mxGeometry x="-150" y="230" width="120" height="120" as="geometry" />
        </mxCell>
        <mxCell id="FxGqSlxQfBp4GIedTy_--12" value="" style="edgeStyle=orthogonalEdgeStyle;rounded=0;orthogonalLoop=1;jettySize=auto;html=1;curved=1;" parent="1" source="FxGqSlxQfBp4GIedTy_--2" target="FxGqSlxQfBp4GIedTy_--6" edge="1">
          <mxGeometry relative="1" as="geometry" />
        </mxCell>
        <mxCell id="FxGqSlxQfBp4GIedTy_--14" style="edgeStyle=orthogonalEdgeStyle;rounded=0;orthogonalLoop=1;jettySize=auto;html=1;entryX=0;entryY=0.5;entryDx=0;entryDy=0;curved=1;" parent="1" source="FxGqSlxQfBp4GIedTy_--3" target="FxGqSlxQfBp4GIedTy_--4" edge="1">
          <mxGeometry relative="1" as="geometry" />
        </mxCell>
        <mxCell id="FxGqSlxQfBp4GIedTy_--3" value="&lt;b&gt;APOGEE&lt;/b&gt;" style="ellipse;whiteSpace=wrap;html=1;aspect=fixed;fillColor=#ffe6cc;strokeColor=#d79b00;" parent="1" vertex="1">
          <mxGeometry x="20" y="-210" width="120" height="120" as="geometry" />
        </mxCell>
        <mxCell id="FxGqSlxQfBp4GIedTy_--15" style="edgeStyle=orthogonalEdgeStyle;rounded=0;orthogonalLoop=1;jettySize=auto;html=1;curved=1;" parent="1" source="FxGqSlxQfBp4GIedTy_--4" target="FxGqSlxQfBp4GIedTy_--5" edge="1">
          <mxGeometry relative="1" as="geometry" />
        </mxCell>
        <mxCell id="FxGqSlxQfBp4GIedTy_--4" value="&lt;b&gt;CHUTE-EJECTION&lt;/b&gt;" style="ellipse;whiteSpace=wrap;html=1;aspect=fixed;fillColor=#f8cecc;strokeColor=#b85450;" parent="1" vertex="1">
          <mxGeometry x="240" y="-270" width="120" height="120" as="geometry" />
        </mxCell>
        <mxCell id="FxGqSlxQfBp4GIedTy_--16" style="edgeStyle=orthogonalEdgeStyle;rounded=0;orthogonalLoop=1;jettySize=auto;html=1;entryX=0.5;entryY=0;entryDx=0;entryDy=0;curved=1;" parent="1" source="FxGqSlxQfBp4GIedTy_--5" target="FxGqSlxQfBp4GIedTy_--9" edge="1">
          <mxGeometry relative="1" as="geometry" />
        </mxCell>
        <mxCell id="FxGqSlxQfBp4GIedTy_--5" value="&lt;b&gt;CHUTE-DESCENT&lt;/b&gt;" style="ellipse;whiteSpace=wrap;html=1;aspect=fixed;fillColor=#f5f5f5;fontColor=#333333;strokeColor=#666666;" parent="1" vertex="1">
          <mxGeometry x="510" y="-210" width="120" height="120" as="geometry" />
        </mxCell>
        <mxCell id="FxGqSlxQfBp4GIedTy_--13" style="edgeStyle=orthogonalEdgeStyle;rounded=0;orthogonalLoop=1;jettySize=auto;html=1;entryX=0.5;entryY=1;entryDx=0;entryDy=0;curved=1;" parent="1" source="FxGqSlxQfBp4GIedTy_--6" target="FxGqSlxQfBp4GIedTy_--3" edge="1">
          <mxGeometry relative="1" as="geometry" />
        </mxCell>
        <mxCell id="FxGqSlxQfBp4GIedTy_--6" value="&lt;b&gt;COASTING&lt;/b&gt;" style="ellipse;whiteSpace=wrap;html=1;aspect=fixed;fillColor=#f5f5f5;fontColor=#333333;strokeColor=#666666;" parent="1" vertex="1">
          <mxGeometry x="-90" width="120" height="120" as="geometry" />
        </mxCell>
        <mxCell id="FxGqSlxQfBp4GIedTy_--9" value="&lt;b&gt;POST-FLIGHT&lt;/b&gt;" style="ellipse;whiteSpace=wrap;html=1;aspect=fixed;fillColor=#d5e8d4;strokeColor=#82b366;" parent="1" vertex="1">
          <mxGeometry x="710" y="-40" width="120" height="120" as="geometry" />
        </mxCell>
        <mxCell id="FxGqSlxQfBp4GIedTy_--17" value="" style="endArrow=none;html=1;rounded=0;dashed=1;dashPattern=8 8;strokeWidth=4;" parent="1" edge="1">
          <mxGeometry width="50" height="50" relative="1" as="geometry">
            <mxPoint x="-590" y="430" as="sourcePoint" />
            <mxPoint x="1010" y="430" as="targetPoint" />
          </mxGeometry>
        </mxCell>
        <mxCell id="FxGqSlxQfBp4GIedTy_--18" value="&lt;b&gt;&lt;font style=&quot;font-size: 25px;&quot;&gt;SAFE-MODE&lt;/font&gt;&lt;/b&gt;" style="text;html=1;align=center;verticalAlign=middle;resizable=0;points=[];autosize=1;strokeColor=none;fillColor=none;" parent="1" vertex="1">
          <mxGeometry x="-5" y="600" width="170" height="40" as="geometry" />
        </mxCell>
        <mxCell id="FxGqSlxQfBp4GIedTy_--19" value="&lt;span style=&quot;font-size: 25px;&quot;&gt;&lt;b&gt;FLIGHT MODE&lt;/b&gt;&lt;/span&gt;" style="text;html=1;align=center;verticalAlign=middle;resizable=0;points=[];autosize=1;strokeColor=none;fillColor=none;" parent="1" vertex="1">
          <mxGeometry x="360" y="590" width="200" height="40" as="geometry" />
        </mxCell>
        <mxCell id="FxGqSlxQfBp4GIedTy_--21" value="&lt;b&gt;Safe-Mode Conditions&lt;/b&gt;" style="swimlane;fontStyle=0;childLayout=stackLayout;horizontal=1;startSize=20;horizontalStack=0;resizeParent=1;resizeParentMax=0;resizeLast=0;collapsible=1;marginBottom=0;whiteSpace=wrap;html=1;fillColor=#d5e8d4;strokeColor=#82b366;" parent="1" vertex="1">
          <mxGeometry x="5" y="640" width="270" height="110" as="geometry">
            <mxRectangle x="-595" y="510" width="160" height="30" as="alternateBounds" />
          </mxGeometry>
        </mxCell>
        <mxCell id="FxGqSlxQfBp4GIedTy_--22" value="1. Parachute Ejection System Disabled" style="text;strokeColor=none;fillColor=none;align=left;verticalAlign=middle;spacingLeft=4;spacingRight=4;overflow=hidden;points=[[0,0.5],[1,0.5]];portConstraint=eastwest;rotatable=0;whiteSpace=wrap;html=1;" parent="FxGqSlxQfBp4GIedTy_--21" vertex="1">
          <mxGeometry y="20" width="270" height="30" as="geometry" />
        </mxCell>
        <mxCell id="FxGqSlxQfBp4GIedTy_--23" value="2. State Transition Locked - state is maintained at safe mode" style="text;strokeColor=none;fillColor=none;align=left;verticalAlign=middle;spacingLeft=4;spacingRight=4;overflow=hidden;points=[[0,0.5],[1,0.5]];portConstraint=eastwest;rotatable=0;whiteSpace=wrap;html=1;" parent="FxGqSlxQfBp4GIedTy_--21" vertex="1">
          <mxGeometry y="50" width="270" height="30" as="geometry" />
        </mxCell>
        <mxCell id="FxGqSlxQfBp4GIedTy_--24" value="3. Transmitting &quot;PRE-FLIGHT&quot; data&amp;nbsp;" style="text;strokeColor=none;fillColor=none;align=left;verticalAlign=middle;spacingLeft=4;spacingRight=4;overflow=hidden;points=[[0,0.5],[1,0.5]];portConstraint=eastwest;rotatable=0;whiteSpace=wrap;html=1;" parent="FxGqSlxQfBp4GIedTy_--21" vertex="1">
          <mxGeometry y="80" width="270" height="30" as="geometry" />
        </mxCell>
        <mxCell id="FxGqSlxQfBp4GIedTy_--25" value="4. Sensor Data being received on ground-station but no event transition based on this data" style="text;strokeColor=none;fillColor=none;align=left;verticalAlign=middle;spacingLeft=4;spacingRight=4;overflow=hidden;points=[[0,0.5],[1,0.5]];portConstraint=eastwest;rotatable=0;whiteSpace=wrap;html=1;" parent="1" vertex="1">
          <mxGeometry x="10" y="750" width="265" height="30" as="geometry" />
        </mxCell>
        <mxCell id="FxGqSlxQfBp4GIedTy_--26" value="&lt;b&gt;Flight Mode Conditions&lt;/b&gt;" style="swimlane;fontStyle=0;childLayout=stackLayout;horizontal=1;startSize=30;horizontalStack=0;resizeParent=1;resizeParentMax=0;resizeLast=0;collapsible=1;marginBottom=0;whiteSpace=wrap;html=1;fillColor=#e1d5e7;strokeColor=#9673a6;" parent="1" vertex="1">
          <mxGeometry x="370" y="630" width="290" height="120" as="geometry" />
        </mxCell>
        <mxCell id="FxGqSlxQfBp4GIedTy_--27" value="1. Parachute ejection system enabled" style="text;strokeColor=none;fillColor=none;align=left;verticalAlign=middle;spacingLeft=4;spacingRight=4;overflow=hidden;points=[[0,0.5],[1,0.5]];portConstraint=eastwest;rotatable=0;whiteSpace=wrap;html=1;" parent="FxGqSlxQfBp4GIedTy_--26" vertex="1">
          <mxGeometry y="30" width="290" height="30" as="geometry" />
        </mxCell>
        <mxCell id="FxGqSlxQfBp4GIedTy_--28" value="2. State transition unlocked" style="text;strokeColor=none;fillColor=none;align=left;verticalAlign=middle;spacingLeft=4;spacingRight=4;overflow=hidden;points=[[0,0.5],[1,0.5]];portConstraint=eastwest;rotatable=0;whiteSpace=wrap;html=1;" parent="FxGqSlxQfBp4GIedTy_--26" vertex="1">
          <mxGeometry y="60" width="290" height="30" as="geometry" />
        </mxCell>
        <mxCell id="FxGqSlxQfBp4GIedTy_--29" value="3. Transmitting in-flight data" style="text;strokeColor=none;fillColor=none;align=left;verticalAlign=middle;spacingLeft=4;spacingRight=4;overflow=hidden;points=[[0,0.5],[1,0.5]];portConstraint=eastwest;rotatable=0;whiteSpace=wrap;html=1;" parent="FxGqSlxQfBp4GIedTy_--26" vertex="1">
          <mxGeometry y="90" width="290" height="30" as="geometry" />
        </mxCell>
        <mxCell id="FxGqSlxQfBp4GIedTy_--30" value="4. Sensor data received is causing state transition&amp;nbsp;" style="text;strokeColor=none;fillColor=none;align=left;verticalAlign=middle;spacingLeft=4;spacingRight=4;overflow=hidden;points=[[0,0.5],[1,0.5]];portConstraint=eastwest;rotatable=0;whiteSpace=wrap;html=1;" parent="1" vertex="1">
          <mxGeometry x="370" y="750" width="290" height="30" as="geometry" />
        </mxCell>
        <mxCell id="FxGqSlxQfBp4GIedTy_--31" value="&lt;h1&gt;&lt;font style=&quot;font-size: 14px;&quot;&gt;Coupling with ignition count-down&lt;/font&gt;&lt;/h1&gt;&lt;p&gt;The flight software should transition to flight-mode if and only if the ignition countdown from the propulsion team has started. Otherwise, maintain the flight software in the safe mode.&amp;nbsp;&lt;/p&gt;&lt;p&gt;Note: Consider increasing the&amp;nbsp; ignition countdown to &amp;gt;1min to allow switching and data reception check on the ground station&lt;/p&gt;" style="text;html=1;spacing=5;spacingTop=-20;whiteSpace=wrap;overflow=hidden;rounded=0;" parent="1" vertex="1">
          <mxGeometry x="-260" y="640" width="190" height="290" as="geometry" />
        </mxCell>
        <mxCell id="FxGqSlxQfBp4GIedTy_--34" value="&lt;b&gt;Conditions&amp;nbsp;&lt;/b&gt;" style="text;html=1;align=center;verticalAlign=middle;resizable=0;points=[];autosize=1;strokeColor=none;fillColor=none;" parent="1" vertex="1">
          <mxGeometry x="-325" y="330" width="90" height="30" as="geometry" />
        </mxCell>
        <mxCell id="FxGqSlxQfBp4GIedTy_--35" value="&lt;b&gt;Conditions&amp;nbsp;&lt;/b&gt;" style="text;html=1;align=center;verticalAlign=middle;resizable=0;points=[];autosize=1;strokeColor=none;fillColor=none;" parent="1" vertex="1">
          <mxGeometry x="-265" y="140" width="90" height="30" as="geometry" />
        </mxCell>
        <mxCell id="FxGqSlxQfBp4GIedTy_--36" value="&lt;b&gt;Conditions&amp;nbsp;&lt;/b&gt;" style="text;html=1;align=center;verticalAlign=middle;resizable=0;points=[];autosize=1;strokeColor=none;fillColor=none;" parent="1" vertex="1">
          <mxGeometry x="-175" y="-90" width="90" height="30" as="geometry" />
        </mxCell>
        <mxCell id="FxGqSlxQfBp4GIedTy_--37" value="&lt;b&gt;Conditions&amp;nbsp;&lt;/b&gt;" style="text;html=1;align=center;verticalAlign=middle;resizable=0;points=[];autosize=1;strokeColor=none;fillColor=none;" parent="1" vertex="1">
          <mxGeometry x="95" y="-290" width="90" height="30" as="geometry" />
        </mxCell>
        <mxCell id="FxGqSlxQfBp4GIedTy_--38" value="&lt;b&gt;Conditions&amp;nbsp;&lt;/b&gt;" style="text;html=1;align=center;verticalAlign=middle;resizable=0;points=[];autosize=1;strokeColor=none;fillColor=none;" parent="1" vertex="1">
          <mxGeometry x="395" y="-300" width="90" height="30" as="geometry" />
        </mxCell>
        <mxCell id="FxGqSlxQfBp4GIedTy_--39" value="&lt;b&gt;Conditions&amp;nbsp;&lt;/b&gt;" style="text;html=1;align=center;verticalAlign=middle;resizable=0;points=[];autosize=1;strokeColor=none;fillColor=none;" parent="1" vertex="1">
          <mxGeometry x="715" y="-240" width="90" height="30" as="geometry" />
        </mxCell>
        <mxCell id="FxGqSlxQfBp4GIedTy_--40" value="&lt;b&gt;&lt;font style=&quot;font-size: 22px;&quot;&gt;Nakuja Flight Computer State Diagram (N4)&lt;/font&gt;&lt;/b&gt;" style="text;html=1;align=center;verticalAlign=middle;resizable=0;points=[];autosize=1;strokeColor=none;fillColor=none;" parent="1" vertex="1">
          <mxGeometry x="85" y="-400" width="470" height="40" as="geometry" />
        </mxCell>
        <mxCell id="FxGqSlxQfBp4GIedTy_--41" value="&lt;b&gt;&lt;font style=&quot;font-size: 25px;&quot;&gt;SAFE-MODE&lt;/font&gt;&lt;/b&gt;" style="text;html=1;align=center;verticalAlign=middle;resizable=0;points=[];autosize=1;strokeColor=none;fillColor=none;" parent="1" vertex="1">
          <mxGeometry x="-590" y="450" width="170" height="40" as="geometry" />
        </mxCell>
        <mxCell id="FxGqSlxQfBp4GIedTy_--42" value="&lt;span style=&quot;font-size: 25px;&quot;&gt;&lt;b&gt;FLIGHT MODE&lt;/b&gt;&lt;/span&gt;" style="text;html=1;align=center;verticalAlign=middle;resizable=0;points=[];autosize=1;strokeColor=none;fillColor=none;" parent="1" vertex="1">
          <mxGeometry x="-590" y="370" width="200" height="40" as="geometry" />
        </mxCell>
      </root>
    </mxGraphModel>
  </diagram>
</mxfile>
